<svg version="1.1" xmlns="http://www.w3.org/2000/svg" xmlns:xlink="http://www.w3.org/1999/xlink" width="270" height="auto" viewBox="0,0,331.299,73.82852"><g transform="translate(-74.35049,-143.0855)"><g data-paper-data="{&quot;isPaintingLayer&quot;:true}" fill-rule="nonzero" stroke="none" stroke-width="0" stroke-linecap="round" stroke-linejoin="miter" stroke-miterlimit="10" stroke-dasharray="" stroke-dashoffset="0" style="mix-blend-mode: normal"><path d="M74.35049,143.0855h14.893v72.754h-14.893z" fill="#0078b5"/><path d="M116.73349,184.2475v31.592h-14.649v-72.754h14.356v31.787h-1.172c1.432,-4.55733 3.605,-8.081 6.519,-10.571c2.01502,-1.70066 4.43701,-2.84911 7.029,-3.333c1.4078,-0.27556 2.8395,-0.41056 4.274,-0.403c1.73316,-0.01075 3.46151,0.1836 5.149,0.579c1.66371,0.39304 3.26049,1.02885 4.739,1.887c2.73929,1.6046 4.95948,3.96295 6.396,6.794c0.04977,0.09493 0.09877,0.19027 0.147,0.286c0.88564,1.79148 1.51159,3.69998 1.859,5.668c0.302,1.63733 0.45533,3.38867 0.46,5.254c0.00004,0.02967 0.00004,0.05933 0,0.089v34.717h-14.648v-32.178c0,-2.708 -0.55733,-4.94733 -1.672,-6.718c-0.2768,-0.44037 -0.59167,-0.85563 -0.941,-1.241c-1.28856,-1.41182 -3.01235,-2.35204 -4.897,-2.671c-0.77604,-0.14342 -1.56383,-0.21373 -2.353,-0.21c-1.09864,-0.00733 -2.19312,0.13566 -3.253,0.425c-0.7805,0.21682 -1.53269,0.52495 -2.241,0.918c-1.60946,0.89362 -2.91764,2.24462 -3.759,3.882c-0.48559,0.93414 -0.83513,1.93291 -1.038,2.966c-0.178,0.86933 -0.278,1.80367 -0.3,2.803c-0.00327,0.14398 -0.00493,0.28799 -0.005,0.432z" fill="#333333"/><path d="M164.34049,195.9665v-34.717h14.649v32.178c0,3.38533 0.87867,6.03833 2.636,7.959c1.32998,1.44695 3.11197,2.3993 5.054,2.701c0.71774,0.12289 1.44482,0.18312 2.173,0.18c1.0202,0.00646 2.03727,-0.11346 3.028,-0.357c0.87006,-0.21678 1.7074,-0.54836 2.49,-0.986c1.57743,-0.8888 2.86096,-2.21891 3.693,-3.827c0.01411,-0.02628 0.02811,-0.05261 0.042,-0.079c0.50577,-0.98176 0.86524,-2.03221 1.067,-3.118c0.184,-0.948 0.276,-1.96767 0.276,-3.059v-31.592h14.648v54.59h-13.818l-0.196,-13.623h0.831c-1.43267,4.59 -3.622,8.122 -6.568,10.596c-2.15747,1.79206 -4.75796,2.96967 -7.528,3.409c-1.21514,0.20533 -2.44565,0.30603 -3.678,0.301c-1.76162,0.01125 -3.5182,-0.18918 -5.232,-0.597c-1.64162,-0.39465 -3.21782,-1.02378 -4.68,-1.868c-2.83736,-1.65231 -5.11991,-4.11028 -6.558,-7.062c-0.003,-0.006 -0.006,-0.012 -0.009,-0.018c-0.88599,-1.79143 -1.51228,-3.69993 -1.86,-5.668c-0.302,-1.63733 -0.45533,-3.38867 -0.46,-5.254c-0.00004,-0.02967 -0.00004,-0.05933 0,-0.089z" fill="#333333"/><path d="M241.24549,215.8395h-14.649v-54.59h14.16v9.522h0.586c0.37576,-1.2947 0.90061,-2.54139 1.564,-3.715c0.87119,-1.54874 2.06064,-2.89531 3.49,-3.951c2.35625,-1.72423 5.21061,-2.63285 8.13,-2.588c0.46499,0.00061 0.92986,0.01495 1.394,0.043c0.34143,0.02038 0.68249,0.04672 1.023,0.079c0.86267,0.08133 1.63567,0.20333 2.319,0.366v13.086c-0.588,-0.206 -1.41433,-0.372 -2.479,-0.498c-0.11758,-0.01376 -0.23525,-0.02676 -0.353,-0.039c-0.74573,-0.07939 -1.49376,-0.13542 -2.243,-0.168c-0.42409,-0.01829 -0.84852,-0.02763 -1.273,-0.028c-2.21333,0 -4.215,0.48033 -6.005,1.441c-1.79067,0.96 -3.18233,2.29467 -4.175,4.004c-0.99267,1.70867 -1.489,3.70233 -1.489,5.981z" fill="#333333"/><path d="M316.87949,188.2515v4.102h-45.849v-9.18h38.672l-6.836,2.441c0.00455,-1.1732 -0.07835,-2.34512 -0.248,-3.506c-0.196,-1.30267 -0.50767,-2.50667 -0.935,-3.612c-0.03604,-0.09338 -0.07304,-0.18639 -0.111,-0.279c-0.43634,-1.0861 -1.03665,-2.09887 -1.78,-3.003c-0.60037,-0.7217 -1.29999,-1.35466 -2.078,-1.88c-1.07134,-0.71308 -2.27247,-1.20848 -3.535,-1.458c-0.93374,-0.18869 -1.88441,-0.28085 -2.837,-0.275c-1.05337,-0.0072 -2.10393,0.1096 -3.13,0.348c-1.17122,0.2728 -2.28524,0.74975 -3.291,1.409c-1.774,1.172 -3.11667,2.759 -4.028,4.761c-0.59877,1.33407 -0.99998,2.74825 -1.191,4.198c-0.11969,0.88258 -0.17849,1.77235 -0.176,2.663v6.494c-0.00518,1.16073 0.07571,2.32024 0.242,3.469c0.18467,1.23667 0.47567,2.37233 0.873,3.407c0.14076,0.368 0.29826,0.72938 0.472,1.083c0.53627,1.11163 1.2439,2.13208 2.097,3.024c0.69064,0.71329 1.48082,1.32294 2.346,1.81c1.34723,0.7496 2.82246,1.24134 4.35,1.45c0.76678,0.10934 1.54046,0.16315 2.315,0.161c0.87489,0.00325 1.74854,-0.06598 2.612,-0.207c0.70565,-0.11573 1.40016,-0.29137 2.076,-0.525c0.98894,-0.33819 1.91836,-0.83023 2.754,-1.458c0.29205,-0.22144 0.57055,-0.4602 0.834,-0.715c0.88321,-0.86089 1.58531,-1.88974 2.065,-3.026c0.07301,-0.16956 0.1417,-0.34095 0.206,-0.514l13.281,2.49c-0.86136,2.96478 -2.4375,5.67272 -4.59,7.886c-1.74116,1.78877 -3.78584,3.25448 -6.039,4.329c-0.69872,0.33886 -1.41245,0.64585 -2.139,0.92c-1.90754,0.7095 -3.88698,1.20813 -5.903,1.487c-1.78925,0.25132 -3.59419,0.3743 -5.401,0.368c-2.30513,0.01268 -4.6057,-0.20642 -6.867,-0.654c-2.64198,-0.51952 -5.18553,-1.4523 -7.537,-2.764c-4.03667,-2.27867 -7.13733,-5.51767 -9.302,-9.717c-1.28876,-2.53976 -2.18847,-5.2588 -2.669,-8.066c-0.39532,-2.2701 -0.58874,-4.57076 -0.578,-6.875c-0.01316,-2.50338 0.22402,-5.00181 0.708,-7.458c0.50216,-2.54815 1.34789,-5.01635 2.514,-7.337c2.0346,-4.10822 5.20319,-7.54782 9.131,-9.912c2.85652,-1.70134 6.02787,-2.80687 9.323,-3.25c1.50555,-0.21327 3.02443,-0.31854 4.545,-0.315c3.58067,0 6.917,0.56967 10.009,1.709c3.05493,1.11551 5.8356,2.87222 8.155,5.152c1.76444,1.74495 3.22879,3.76915 4.334,5.991c0.43141,0.85508 0.81826,1.73192 1.159,2.627c0.68537,1.82451 1.18229,3.71435 1.483,5.64c0.32933,2.034 0.494,4.223 0.494,6.567z" fill="#333333"/><path d="M341.53849,215.8395h-14.649v-54.59h13.574l0.733,13.574h-1.075c0.31954,-1.28754 0.73024,-2.55073 1.229,-3.78c0.554,-1.34867 1.197,-2.55867 1.929,-3.63c0.18454,-0.27016 0.3773,-0.53462 0.578,-0.793c0.92413,-1.20507 2.0108,-2.27626 3.229,-3.183c0.79803,-0.5884 1.65495,-1.09243 2.557,-1.504c2.19029,-1.00416 4.57251,-1.52073 6.982,-1.514c1.44183,-0.01318 2.87821,0.17874 4.266,0.57c2.00107,0.57161 3.81474,1.66374 5.256,3.165c2.40867,2.49067 4.18267,6.34 5.322,11.548h-1.709c0.33035,-1.44406 0.78642,-2.85645 1.363,-4.221c0.6633,-1.58039 1.54415,-3.06037 2.617,-4.397c1.359,-1.69835 3.02361,-3.12758 4.908,-4.214c0.52961,-0.30151 1.07544,-0.57359 1.635,-0.815c2.52267,-1.09067 5.16733,-1.636 7.934,-1.636c1.74551,-0.01134 3.48477,0.2096 5.172,0.657c1.32103,0.35608 2.59325,0.8733 3.788,1.54c2.62816,1.47258 4.7799,3.66665 6.201,6.323c0.83156,1.53625 1.42883,3.18817 1.772,4.901c0.29067,1.394 0.45433,2.891 0.491,4.491c0.00528,0.2303 0.00795,0.46064 0.008,0.691v36.817h-14.649v-34.033c0.00644,-0.87381 -0.07158,-1.7462 -0.233,-2.605c-0.35533,-1.812 -1.11567,-3.23867 -2.281,-4.28c-1.51629,-1.35461 -3.45551,-2.14133 -5.487,-2.226c-0.22975,-0.01361 -0.45985,-0.02028 -0.69,-0.02c-0.81009,-0.00487 -1.61806,0.08337 -2.408,0.263c-0.82736,0.18908 -1.62088,0.50373 -2.353,0.933c-1.35067,0.79733 -2.39233,1.91233 -3.125,3.345c-0.46402,0.92185 -0.78021,1.91093 -0.937,2.931c-0.10967,0.6939 -0.16351,1.39549 -0.161,2.098v33.594h-14.161v-34.424c0.00786,-0.92543 -0.10169,-1.84813 -0.326,-2.746c-0.3387,-1.3717 -1.04463,-2.62524 -2.042,-3.626c-1.30954,-1.30844 -3.0333,-2.12083 -4.876,-2.298c-0.41564,-0.04736 -0.83367,-0.07073 -1.252,-0.07c-1.02837,-0.00743 -2.05151,0.14678 -3.032,0.457c-0.56642,0.18265 -1.11287,0.4222 -1.631,0.715c-1.26498,0.71927 -2.31431,1.76412 -3.039,3.026c-0.08065,0.13679 -0.15801,0.27549 -0.232,0.416c-0.43267,0.83525 -0.74414,1.72789 -0.925,2.651c-0.15867,0.77733 -0.24767,1.61233 -0.267,2.505c-0.00276,0.12865 -0.00409,0.25732 -0.004,0.386z" fill="#333333"/></g></g></svg>